<svg xmlns="http://www.w3.org/2000/svg">
    <defs>
        <linearGradient
                id="logo_linear"
                x1="30.0415"
                y1="-5.95974"
                x2="-9.63647"
                y2="27.3866"
                gradientUnits="userSpaceOnUse"
        >
            <stop stop-color="#FA9A42"/>
            <stop offset="0.973958" stop-color="#FF6C6C"/>
        </linearGradient>

        <linearGradient
                id="play-linear"
                x1="31.5705"
                y1="-5.95974"
                x2="-8.53692"
                y2="30.604"
                gradientUnits="userSpaceOnUse"
        >
            <stop stop-color="#FA9A42"/>
            <stop offset="0.973958" stop-color="#FF6C6C"/>
        </linearGradient>
    </defs>

    <symbol
            fill="none"
            stroke="currentColor"
            stroke-width="2"
            stroke-linecap="round"
            stroke-linejoin="round"
            viewBox="0 0 24 24"
            id="alert-triangle">
        <path d="M10.29 3.86L1.82 18a2 2 0 001.71 3h16.94a2 2 0 001.71-3L13.71 3.86a2 2 0 00-3.42 0zM12 9v4m0 4h.01"></path>
    </symbol>


    <symbol
            fill="none"
            stroke="currentColor"
            stroke-width="2"
            stroke-linecap="round"
            stroke-linejoin="round"
            viewBox="0 0 24 24"
            id="menu">
        <path d="M3 12h18M3 6h18M3 18h18"></path>
    </symbol>

    <symbol
          fill="none"
          stroke="currentColor"
          stroke-width="2"
          stroke-linecap="round"
          stroke-linejoin="round"
          viewBox="0 0 24 24"
          id="settings">
        <circle cx="12" cy="12" r="3"></circle>
        <path d="M19.4 15a1.65 1.65 0 00.33 1.82l.06.06a2 2 0 010 2.83 2 2 0 01-2.83 0l-.06-.06a1.65 1.65 0 00-1.82-.33 1.65 1.65 0 00-1 1.51V21a2 2 0 01-2 2 2 2 0 01-2-2v-.09A1.65 1.65 0 009 19.4a1.65 1.65 0 00-1.82.33l-.06.06a2 2 0 01-2.83 0 2 2 0 010-2.83l.06-.06a1.65 1.65 0 00.33-1.82 1.65 1.65 0 00-1.51-1H3a2 2 0 01-2-2 2 2 0 012-2h.09A1.65 1.65 0 004.6 9a1.65 1.65 0 00-.33-1.82l-.06-.06a2 2 0 010-2.83 2 2 0 012.83 0l.06.06a1.65 1.65 0 001.82.33H9a1.65 1.65 0 001-1.51V3a2 2 0 012-2 2 2 0 012 2v.09a1.65 1.65 0 001 1.51 1.65 1.65 0 001.82-.33l.06-.06a2 2 0 012.83 0 2 2 0 010 2.83l-.06.06a1.65 1.65 0 00-.33 1.82V9a1.65 1.65 0 001.51 1H21a2 2 0 012 2 2 2 0 01-2 2h-.09a1.65 1.65 0 00-1.51 1z"></path>
    </symbol>

    <symbol
            fill="none"
            stroke="currentColor"
            stroke-width="2"
            stroke-linecap="round"
            stroke-linejoin="round"
            viewBox="0 0 24 24"
            id="layers">
        <path d="M12 2L2 7l10 5 10-5-10-5zM2 17l10 5 10-5M2 12l10 5 10-5"></path>
    </symbol>

    <symbol
          fill="none"
          stroke="currentColor"
          stroke-width="2"
          stroke-linecap="round"
          stroke-linejoin="round"
          viewBox="0 0 24 24"
          id="disc">
        <circle cx="12" cy="12" r="10"></circle>
        <circle cx="12" cy="12" r="3"></circle>
    </symbol>

    <symbol
            fill="none"
            stroke="currentColor"
            stroke-width="2"
            stroke-linecap="round"
            stroke-linejoin="round"
            viewBox="0 0 24 24"
            id="info">
        <circle cx="12" cy="12" r="10"></circle>
        <path d="M12 16v-4m0-4h.01"></path>
    </symbol>

    <symbol
            fill="none"
            stroke="currentColor"
            stroke-width="2"
            stroke-linecap="round"
            stroke-linejoin="round"
            viewBox="0 0 24 24"
            id="at-sign">
        <circle cx="12" cy="12" r="4"></circle>
        <path d="M16 8v5a3 3 0 006 0v-1a10 10 0 10-3.92 7.94"></path>
    </symbol>

    <symbol

            fill="none"
            stroke="currentColor"
            stroke-width="2"
            stroke-linecap="round"
            stroke-linejoin="round"
            viewBox="0 0 24 24"
            id="at-sign">
        <circle cx="12" cy="12" r="4"></circle>
        <path d="M16 8v5a3 3 0 006 0v-1a10 10 0 10-3.92 7.94"></path>
    </symbol>

    <symbol
            fill="none"
            stroke="currentColor"
            stroke-width="2"
            stroke-linecap="round"
            stroke-linejoin="round"
            viewBox="0 0 24 24"
            id="user">
        <path d="M20 21v-2a4 4 0 00-4-4H8a4 4 0 00-4 4v2"></path>
        <circle cx="12" cy="7" r="4"></circle>
    </symbol>

    <symbol
            fill="none"
            stroke="currentColor"
            stroke-width="2"
            stroke-linecap="round"
            stroke-linejoin="round"
            viewBox="0 0 24 24"
            id="list">
        <path d="M8 6h13M8 12h13M8 18h13M3 6h.01M3 12h.01M3 18h.01"></path>
    </symbol>

    <symbol
            fill="none"
            stroke="currentColor"
            stroke-width="2"
            stroke-linecap="round"
            stroke-linejoin="round"
            viewBox="0 0 24 24"
            id="search">
        <circle cx="11" cy="11" r="8"></circle>
        <path d="M21 21l-4.35-4.35"></path>
    </symbol>

    <symbol
            fill="none"
            stroke="currentColor"
            stroke-width="2"
            stroke-linecap="round"
            stroke-linejoin="round"
            viewBox="0 0 24 24"
            id="more-horizontal">
        <circle cx="12" cy="12" r="1"></circle>
        <circle cx="19" cy="12" r="1"></circle>
        <circle cx="5" cy="12" r="1"></circle>
    </symbol>

    <symbol
           fill="none"
           stroke="currentColor"
           stroke-width="2"
           stroke-linecap="round"
           stroke-linejoin="round"
           viewBox="0 0 24 24"
           id="check">
        <path d="M20 6L9 17l-5-5"></path>
    </symbol>

    <symbol
            fill="none"
             stroke="currentColor"
            stroke-width="2"
            stroke-linecap="round"
            stroke-linejoin="round"
            viewBox="0 0 24 24"
            id="x">
        <path d="M18 6L6 18M6 6l12 12"></path>
    </symbol>

    <symbol
            fill="none"
            stroke="currentColor"
            stroke-width="2"
            stroke-linecap="round"
            stroke-linejoin="round"
            viewBox="0 0 24 24"
            id="chevron-down">
        <path d="M6 9l6 6 6-6"></path>
    </symbol>
</svg>
